<svg xmlns="http://www.w3.org/2000/svg" viewBox="0 0 64 64">
  <defs>
    <linearGradient id="pg" x1="0%" y1="0%" x2="0%" y2="100%">
      <stop offset="0%" stop-color="#a78bfa"/>
      <stop offset="100%" stop-color="#3b82f6"/>
    </linearGradient>
  </defs>
  <!-- bottle body -->
  <path fill="url(#pg)" d="M22 36 C18 40 16 46 18 52 C20 58 44 58 46 52 C48 46 46 40 42 36 L38 26 L26 26 Z"/>
  <!-- bottle neck -->
  <rect fill="#6d28d9" x="26" y="16" width="12" height="12" rx="3"/>
  <!-- bottle cap -->
  <rect fill="#4c1d95" x="24" y="12" width="16" height="6" rx="3"/>
  <!-- liquid shine -->
  <ellipse fill="rgba(255,255,255,0.25)" cx="27" cy="46" rx="4" ry="8"/>
  <!-- bubbles -->
  <circle fill="rgba(255,255,255,0.4)" cx="35" cy="44" r="2.5"/>
  <circle fill="rgba(255,255,255,0.3)" cx="30" cy="50" r="1.8"/>
  <circle fill="rgba(255,255,255,0.35)" cx="38" cy="50" r="1.5"/>
  <!-- bottle outline -->
  <path fill="none" stroke="#7c3aed" stroke-width="1.5" d="M22 36 C18 40 16 46 18 52 C20 58 44 58 46 52 C48 46 46 40 42 36 L38 26 L26 26 Z"/>
</svg>
